/* XPM */
static const char* const browser_xpm[] = {
"32 32 3 1",
"a c #808080",
"# c #ff0000",
". c #ffffff",
"..############################..",
".##############################.",
"###..........................###",
"##............................##",
"##............................##",
"##...aaaaaaaaaaaaaaaaaaaaaa...##",
"##...aaaaaaaaaaaaaaaaaaaaaa...##",
"##...aaaaaaaaaaaaaaaaaaaaaa...##",
"##............................##",
"##............................##",
"##............................##",
"##...aaaaaaaaaaaaaaaaaaaaaa...##",
"##...aaaaaaaaaaaaaaaaaaaaaa...##",
"##...aaaaaaaaaaaaaaaaaaaaaa...##",
"##............................##",
"##............................##",
"##............................##",
"##...aaaaaaaaaaaaaaaaaaaaaa...##",
"##...aaaaaaaaaaaaaaaaaaaaaa...##",
"##...aaaaaaaaaaaaaaaaaaaaaa...##",
"##............................##",
"##............................##",
"##............................##",
"##...aaaaaaaaaaaaaaaaaaaaaa...##",
"##...aaaaaaaaaaaaaaaaaaaaaa...##",
"##...aaaaaaaaaaaaaaaaaaaaaa...##",
"##............................##",
"##............................##",
"##............................##",
"###..........................###",
".##############################.",
"..############################.."};

