/* XPM */
static char * circle_21_green_xpm[] = {
"21 21 2 1",
" 	c None",
"+	c #00FF00",
"       +++++++       ",
"     +++++++++++     ",
"    ++++++++++++++   ",
"   ++++++++++++++++  ",
"  +++++++++++++++++  ",
" +++++++++++++++++++ ",
" +++++++++++++++++++ ",
"+++++++++++++++++++++",
"+++++++++++++++++++++",
"+++++++++++++++++++++",
"+++++++++++++++++++++",
"+++++++++++++++++++++",
"+++++++++++++++++++++",
"+++++++++++++++++++++",
" +++++++++++++++++++ ",
" +++++++++++++++++++ ",
"  +++++++++++++++++  ",
"  +++++++++++++++++  ",
"   +++++++++++++++   ",
"     ++++++++++++    ",
"       ++++++++      "};
