/* XPM */
static char * kreis_21_063Grad_blau_xpm[] = {
"21 21 3 1",
" 	c None",
".	c #0000FF",
"+	c #0000FE",
"       .......       ",
"     ...  +..+.+     ",
"    ..    .+.+.++.   ",
"   .      +..+.++++  ",
"  .       +..++++++  ",
" +.       +.++.+.++. ",
" +        .+.+.+.+...",
"..        .+.+..+.  .",
".         .++...    +",
"+         .++.      .",
".         +.        .",
".                   .",
".                   +",
".+                  .",
" .                 +.",
" .+                + ",
"  .               .+ ",
"  .+             ..  ",
"   ..           ..   ",
"     ++       +..    ",
"      +.+.+.++.      "};
