/* XPM */
static const char* const fax_on_xpm[] = {
"28 23 3 1",
"# c #000000",
"a c #000000",
". c None",
"..########################..",
".##########################.",
"###......................###",
"##.....aaaaaaaaaaa........##",
"##...aa...........aaaa....##",
"##..a....aaaaaaa......a...##",
"##.a...aa.......aaaa...a..##",
"##.a..a.............a..a..##",
"##.a..a..aaaaaaaaaaa.a..a.##",
"##.a..a..aaaaaaaaaaa.a..a.##",
"##.a..a......aaa.....a..a.##",
"##.a..aa.....aaa....a...a.##",
"##.a...a.....aaa...a....a.##",
"##..a...a....aaa..a....a..##",
"##..a....a...aaa..a....a..##",
"##...a....aa.....a....a...##",
"##....a.....a...a.....a...##",
"##.....aa....aaa.....a....##",
"##.......aaa........a.....##",
"##..........aaaaaaaa......##",
"###......................###",
".##########################.",
"..########################.."};
