/* XPM */
static const char* const gps_xpm[] = {
"32 32 56 1",
"# c #ecea2b",
"O c #ecea2d",
"b c #ecea2f",
"c c #ecea30",
"E c #ecea31",
"Z c #ecea32",
"e c #ecea33",
"g c #eceb35",
"w c #edeb39",
"G c #edeb3b",
"P c #eeed4b",
"T c #efed50",
"k c #efee53",
"N c #efee55",
"r c #f0ee57",
"z c #f0ee58",
"s c #f0ee5a",
"v c #f1ef66",
"0 c #f1f06b",
"H c #f1f06d",
"x c #f3f27e",
"V c #f3f27f",
"M c #f3f280",
"D c #f3f281",
"I c #f3f282",
"C c #f4f389",
"W c #f5f495",
"Y c #f5f497",
"S c #f5f59a",
"j c #f6f59c",
"q c #f6f5a1",
"n c #f7f6a8",
"J c #f7f7ae",
"f c #f8f7b6",
"i c #f8f7b7",
"a c #f8f8bb",
"d c #f9f9c4",
"h c #faf9ca",
"l c #fbfad5",
"Q c #fbfad6",
"t c #fbfbda",
"K c #fcfbdd",
"u c #fcfce1",
"1 c #fdfcea",
"X c #fdfdeb",
"L c #fdfdef",
"B c #fdfdf0",
"R c #fdfdf1",
"y c #fefef5",
"o c #fefef6",
"A c #fefef7",
"p c #fefef8",
"U c #fefef9",
"m c #fefefa",
"F c #fefefc",
". c #ffffff",
".##############################.",
"################################",
"###..........................###",
"##............................##",
"##...ab#cd....................##",
"##..aea.fgh...................##",
"##..ba...ij...................##",
"##..#.........................##",
"##..#...###...................##",
"##..#.....#...................##",
"##..ba...ab...................##",
"##..aea.aea.###bkl............##",
"##...ab#ba..#..mnk............##",
"##..........#...ob............##",
"##..........#..pqr............##",
"##..........###cst............##",
"##..........#........uvewxy...##",
"##..........#........zqABCD...##",
"##..........#........Ey..FG...##",
"##..........#........HIJK.....##",
"##...................LMNOPQ...##",
"##......................RST...##",
"##...................wy..UE...##",
"##...................VWXoYv...##",
"##...................yxwZ01...##",
"##............................##",
"##............................##",
"##............................##",
"##............................##",
"###..........................###",
"################################",
".##############################."};
