/* XPM */
static const char* const msg_none_xpm[] = {
"28 23 3 1",
"# c #A0A0A0",
"a c #C0C0C0",
". c None",
"..########################..",
".##########################.",
"###......................###",
"##........................##",
"##........................##",
"##........................##",
"##........................##",
"##........................##",
"##........................##",
"##........................##",
"##........................##",
"##........................##",
"##........................##",
"##........................##",
"##........................##",
"##........................##",
"##........................##",
"##........................##",
"##........................##",
"##........................##",
"###......................###",
".##########################.",
"..########################.."};
