/* XPM */
static const char* const msg_warn_xpm[] = {
"28 23 3 1",
"a c #FFA020",
"# c #FFA020",
". c None",
"..########################..",
".##########################.",
"###......................###",
"##........................##",
"##........................##",
"##........................##",
"##........................##",
"##.aaa.......aa.......aaa.##",
"##.aaa.......aa.......aaa.##",
"##.aaa......aaaa......aaa.##",
"##..aaa.....aaaaa....aaa..##",
"##..aaa....aaaaaa....aaa..##",
"##...aaa..aaa..aaa..aaa...##",
"##...aaa..aaa..aaa..aaa...##",
"##...aaa..aaa..aaa..aaa...##",
"##....aaa.aaa..aaa.aaa....##",
"##....aaaaaa....aaaaaa....##",
"##....aaaaa......aaaaa....##",
"##.....aaaa......aaaa.....##",
"##.....aaa........aaa.....##",
"##........................##",
"##........................##",
"##........................##",
"###......................###",
".##########################.",
"..########################.."};
