/* XPM */
static const char* const msg_error_xpm[] = {
"28 23 3 1",
"a c #FF6060",
"# c #FF0000",
". c None",
"..########################..",
".##########################.",
"###......................###",
"##..........aaaa..........##",
"##.........aaaaaa.........##",
"##........aaaaaaaa........##",
"##........aaaaaaaa........##",
"##........aaaaaaaa........##",
"##.........aaaaaa.........##",
"##.........aaaaaa.........##",
"##.........aaaaaa.........##",
"##..........aaaa..........##",
"##..........aaaa..........##",
"##..........aaaa..........##",
"##........................##",
"##..........aaaa..........##",
"##.........aaaaaa.........##",
"##.........aaaaaa.........##",
"##.........aaaaaa.........##",
"##..........aaaa..........##",
"###......................###",
".##########################.",
"..########################.."};
