/* XPM */
static const char* const msg_info_xpm[] = {
"28 23 3 1",
"a c #4040FF",
"# c #4040FF",
". c None",
"..########################..",
".##########################.",
"###......................###",
"##..........aaaa..........##",
"##.........aaaaaa.........##",
"##........aaaaaaaa........##",
"##........aaaaaaaa........##",
"##.........aaaaaa.........##",
"##..........aaaa..........##",
"##........................##",
"##.........aaaaaa.........##",
"##.........aaaaaa.........##",
"##..........aaaa..........##",
"##..........aaaa..........##",
"##..........aaaa..........##",
"##..........aaaa..........##",
"##..........aaaa..........##",
"##.........aaaaaaa........##",
"##......aaaaaaaaaaaa......##",
"##......aaaaaaaaaaaa......##",
"###......................###",
".##########################.",
"..########################.."};
