/* XPM */
static const char* const navtex_xpm[] = {
"32 32 2 1",
"# c #0000cc",
". c #ffffff",
".##############################.",
"################################",
"###..........................###",
"##............................##",
"##...##...##....##...##....##.##",
"##...###..##...####..##....##.##",
"##...###..##...#..#...##..##..##",
"##...##.#.##..##..##..##..##..##",
"##...##.#.##..##..##..##..##..##",
"##...##..###..######...#..#...##",
"##...##..###.##....##..####...##",
"##...##...##.##....##...##....##",
"##...##...##.##....##...##....##",
"##............................##",
"##............................##",
"##............................##",
"##............................##",
"##............................##",
"##..########.######.##....##..##",
"##.....##....##.....##....##..##",
"##.....##....##......##..##...##",
"##.....##....##.......####....##",
"##.....##....######....##.....##",
"##.....##....##.......####....##",
"##.....##....##......##..##...##",
"##.....##....##.....##....##..##",
"##.....##....######.##....##..##",
"##............................##",
"##............................##",
"###..........................###",
"################################",
".##############################."};
