/* XPM */
static const char* const power_xpm[] = {
"32 32 2 1",
"# c #ff0000",
". c #ffffff",
"................................",
"................................",
"..............####..............",
"..............####..............",
"..............####..............",
"..........###.####.###..........",
"........#####.####.#####........",
".......######.####.######.......",
"......####....####....####......",
".....####.....####.....####.....",
"....####......####......####....",
"....###....##.####.##....###....",
"....###....##.####.##....###....",
"...###....##..####..##....###...",
"...###....##..####..##....###...",
"...###....##..####..##....###...",
"...###....##..####..##....###...",
"...###....##........##....###...",
"...###....##........##....###...",
"....###....##......##....###....",
"....###....##########....###....",
"....####.....######.....####....",
".....####..............####.....",
"......####............####......",
".......######......######.......",
"........################........",
"..........############..........",
"............########............",
"................................",
"................................",
"................................",
"................................"};
