/* XPM */
static const char* const radio_xpm[] = {
"32 32 2 1",
"# c #8080ff",
". c #ffffff",
"..############################..",
".##############################.",
"####........................####",
"###..........................###",
"##............................##",
"##............................##",
"##............................##",
"##............................##",
"##............................##",
"##..########################..##",
"##..#......................#..##",
"##..#......##########......#..##",
"##..#....###........###....#..##",
"##..#...#..............#...#..##",
"##..#...#..............#...#..##",
"##..#....###........###....#..##",
"##..#......##########......#..##",
"##..#......................#..##",
"##..########################..##",
"##..#......................#..##",
"##..#.###.############.###.#..##",
"##..#.#.#.#..........#.#.#.#..##",
"##..#.###.############.###.#..##",
"##..#......................#..##",
"##..########################..##",
"##............................##",
"##............................##",
"##............................##",
"###..........................###",
"####........................####",
".##############################.",
"..############################.."};
