/* XPM */
static const char* const sched_xpm[] = {
"32 32 16 1",
"# c #00a500",
"n c #05a705",
"e c #0aa80a",
"h c #0ca90c",
"i c #23b123",
"d c #33b733",
"m c #54c254",
"j c #74cd74",
"c c #79cf79",
"f c #96d996",
"k c #c3e9c3",
"b c #c5eac5",
"g c #d8f1d8",
"l c #f3faf3",
"a c #fafdfa",
". c #ffffff",
".##############################.",
"################################",
"###..........................###",
"##............................##",
"##.........abcd#edcba.........##",
"##.......af##########fa.......##",
"##......gh##ijk.lkji##hg......##",
"##.....b##ik........ki##b.....##",
"##....g##m............m##g....##",
"##...ah#m..............m#ha...##",
"##...f#i................i#f...##",
"##..a##k................k##a..##",
"##..b#i..................i#b..##",
"##..c#j..................j#c..##",
"##..d#k..................k#d..##",
"##..e#l........##########n#e..##",
"##..e#l.......###########n#e..##",
"##..d#k......##..........k#d..##",
"##..c#j.....##...........j#c..##",
"##..b#i....##............i#b..##",
"##..a##k................k##a..##",
"##...f#i................i#f...##",
"##...ah#m..............m#ha...##",
"##....g##m............m##g....##",
"##.....b##ik........ki##b.....##",
"##......gh##ijk.lkji##hg......##",
"##.......af##########fa.......##",
"##.........abcd#edcba.........##",
"##............................##",
"###..........................###",
"################################",
".##############################."};
