/* XPM */
static const char* const settings_xpm[] = {
"32 32 3 1",
"# c #008080",
". c #c0c0c0",
"a c #ffffff",
"..############################..",
".##############################.",
"####aaaaaaaaaaaaaaaaaaaaaaaa####",
"###aaaaaaaaaaaaaaaaaaaaaaaaaa###",
"##aaaaaaaaaaaaaaaaaaaaaaaaaaaa##",
"##aaaaaaaaaaaaaaaaaaaaaaaaaaaa##",
"##aaaaaaaaaaaaaaaaaaaaaaaaaaaa##",
"##aaaaaaaaaaaaaaaaaaaaaaaaaaaa##",
"##aaaaaaaaaaaaaaaaaaaaaaaaaaaa##",
"##aaaaaaaaaaaaaaaaaaaaaaaaaaaa##",
"##aaaaaaa####aaaaaaaaaaaaaaaaa##",
"##aaaaaa#aaaa#aaaaaaaaaaaaaaaa##",
"##aaaaaa####aa#aaaaaaaaaaaaaaa##",
"##aaaaaaaaaa#a##########aaaaaa##",
"##aaaaaaaaaa#a############aaaa##",
"##aaaaaaaaaa#aaaaaaaaaaa##aaaa##",
"##aaaaaaaaaa#a############aaaa##",
"##aaaaaaaaaa#a##########aaaaaa##",
"##aaaaaa####aa#aaaaaaaaaaaaaaa##",
"##aaaaaa#aaaa#aaaaaaaaaaaaaaaa##",
"##aaaaaaa####aaaaaaaaaaaaaaaaa##",
"##aaaaaaaaaaaaaaaaaaaaaaaaaaaa##",
"##aaaaaaaaaaaaaaaaaaaaaaaaaaaa##",
"##aaaaaaaaaaaaaaaaaaaaaaaaaaaa##",
"##aaaaaaaaaaaaaaaaaaaaaaaaaaaa##",
"##aaaaaaaaaaaaaaaaaaaaaaaaaaaa##",
"##aaaaaaaaaaaaaaaaaaaaaaaaaaaa##",
"##aaaaaaaaaaaaaaaaaaaaaaaaaaaa##",
"###aaaaaaaaaaaaaaaaaaaaaaaaaa###",
"####aaaaaaaaaaaaaaaaaaaaaaaa####",
".##############################.",
"..############################.."};
