/* XPM */
static const char* const speaker_off_xpm[] = {
"28 23 3 1",
"# c #A0A0A0",
"a c #C0C0C0",
". c None",
"..########################..",
".##########################.",
"###......................###",
"##.............aaaaaaaa...##",
"##............aaaaaaaa....##",
"##....aaaaaaaaaaaaa.aa....##",
"##....aaaaaaaaaaaa..aa....##",
"##...aaaaaaaaaaaa...aa....##",
"##...aaaaaaaaaaa....aa....##",
"##...aaaaaaaaaa.....aa....##",
"##...aa...aaaa......aa....##",
"##...aa...aaa.......aa....##",
"##...aa...aaaa......aa....##",
"##...aaaaaaaaaa.....aa....##",
"##...aaaaaaaaaaa....aa....##",
"##....aaaaaaaaaaa...aa....##",
"##....aaaaaaaaaaaa..aa....##",
"##............aaaaa.aa....##",
"##.............aaaaaaa....##",
"##..............aaaaaaa...##",
"###......................###",
".##########################.",
"..########################.."};
