/* XPM */
static char * square_21_grey_X_xpm[] = {
"21 21 2 1",
" 	c #FF0000",
"x	c #000000",
"x                   x",
"xxx               xxx",
" xxx             xxx ",
"  xxx           xxx  ",
"   xxx         xxx   ",
"    xxx       xxx    ",
"     xxx     xxx     ",
"      xxx   xxx      ",
"       xxx xxx       ",
"        xxxxx        ",
"         xxx         ",
"        xxxxx        ",
"       xxx xxx       ",
"      xxx   xxx      ",
"     xxx     xxx     ",
"    xxx       xxx    ",
"   xxx         xxx   ",
"  xxx           xxx  ",
" xxx             xxx ",
"xxx               xxx",
"x                   x"};
