/* XPM */
static char * square_21_grey_R_xpm[] = {
"21 21 2 1",
".	c #808080",
"x	c #FF4040",
".....................",
".....................",
"...xxxxxxxxxxxx......",
"...xxxxxxxxxxxxx.....",
"...xxxxxxxxxxxxxx....",
"...xxx........xxx....",
"...xxx.........xxx...",
"...xxx.........xxx...",
"...xxx........xxx....",
"...xxxxxxxxxxxxx.....",
"...xxxxxxxxxxxx......",
"...xxxxxxxxxxxx......",
"...xxx......xxx......",
"...xxx.......xxx.....",
"...xxx.......xxx.....",
"...xxx........xxx....",
"...xxx........xxx....",
"...xxx.........xxx...",
"...xxx.........xxx...",
".....................",
"....................."};
