/* XPM */
static char * square_21_grey_X_xpm[] = {
"21 21 2 1",
" 	c #808080",
"x	c #FF4040",
"                     ",
"        xxxxx        ",
"       xxxxxxx       ",
"      xxxxxxxxx      ",
"      xxxxxxxxx      ",
"      xxxxxxxxx      ",
"       xxxxxxx       ",
"       xxxxxxx       ",
"       xxxxxxx       ",
"       xxxxxxx       ",
"       xxxxxxx       ",
"        xxxxx        ",
"        xxxxx        ",
"         xxx         ",
"                     ",
"         xxx         ",
"        xxxxx        ",
"       xxxxxxx       ",
"        xxxxx        ",
"         xxx         ",
"                     "};
