/* XPM */
static const char* const text_on_xpm[] = {
"28 23 3 1",
"a c #404040",
"# c #DD0000",
". c None",
"..########################..",
".##########################.",
"###......................###",
"##...aaaaaaaaaaaaaaaaaa...##",
"##...aaaaaaaaaaaaaaaaaa...##",
"##...aaaaaaaaaaaaaaaaaa...##",
"##........................##",
"##........................##",
"##...aaaaaaaaaaaaaaaaaa...##",
"##...aaaaaaaaaaaaaaaaaa...##",
"##...aaaaaaaaaaaaaaaaaa...##",
"##........................##",
"##........................##",
"##...aaaaaaaaaaaaaaaaaa...##",
"##...aaaaaaaaaaaaaaaaaa...##",
"##...aaaaaaaaaaaaaaaaaa...##",
"##........................##",
"##...aaaaaaaaaaaaaaaaaa...##",
"##...aaaaaaaaaaaaaaaaaa...##",
"##...aaaaaaaaaaaaaaaaaa...##",
"###......................###",
".##########################.",
"..########################.."};
