/* XPM */
static const char* const image5_data[] = {
"512 12 8 1",
". c #000000",
"e c #000080",
"a c #0000ff",
"b c #008080",
"f c #80ff80",
"# c #a8a8ff",
"c c #ff8000",
"d c #ffff80",
".##############################################################.###############################################################..###############aabbbbbbbbbbbbbbbbaaccccaadddeeedddaacccaabbfbb.bbbbbbbbbbaa###################################################..#########################################f####################.###############################################################..###############################################################.##############################################################.",
".##############################################################.###############################################################..###############aabbbbbbbbbbbbbbbbaaccccaadddeeedddaacccaabbfbb.bbbbbbbbbbaa###################################################..#########################################f####################.###############################################################..###############################################################.##############################################################.",
".##############################################################.###############################################################..###############aabbbbbbbbbbbbbbbbaaccccaadddeeedddaacccaabbfbb.bbbbbbbbbbaa###################################################..#########################################f####################.###############################################################..###############################################################.##############################################################.",
".##############################################################.###############################################################..###############aabbbbbbbbbbbbbbbbaaccccaadddeeedddaacccaabbfbb.bbbbbbbbbbaa###################################################..#########################################f####################.###############################################################..###############################################################.##############################################################.",
".##############################################################.###############################################################..###############aabbbbbbbbbbbbbbbbaaccccaadddeeedddaacccaabbfbb.bbbbbbbbbbaa###################################################..#########################################f####################.###############################################################..###############################################################.##############################################################.",
".##############################################################.###############################################################..###############aabbbbbbbbbbbbbbbbaaccccaadddeeedddaacccaabbfbb.bbbbbbbbbbaa###################################################..#########################################f####################.###############################################################..###############################################################.##############################################################.",
".##############################################################.###############################################################..###############aabbbbbbbbbbbbbbbbaaccccaadddeeedddaacccaabbfbb.bbbbbbbbbbaa###################################################..#########################################f####################.###############################################################..###############################################################.##############################################################.",
".##############################################################.###############################################################..###############aabbbbbbbbbbbbbbbbaaccccaadddeeedddaacccaabbfbb.bbbbbbbbbbaa###################################################..#########################################f####################.###############################################################..###############################################################.##############################################################.",
".##############################################################.###############################################################..###############aabbbbbbbbbbbbbbbbaaccccaadddeeedddaacccaabbfbb.bbbbbbbbbbaa###################################################..#########################################f####################.###############################################################..###############################################################.##############################################################.",
".##############################################################.###############################################################..###############aabbbbbbbbbbbbbbbbaaccccaadddeeedddaacccaabbfbb.bbbbbbbbbbaa###################################################..#########################################f####################.###############################################################..###############################################################.##############################################################.",
".##############################################################.###############################################################..###############aabbbbbbbbbbbbbbbbaaccccaadddeeedddaacccaabbfbb.bbbbbbbbbbaa###################################################..#########################################f####################.###############################################################..###############################################################.##############################################################.",
".##############################################################.###############################################################..###############aabbbbbbbbbbbbbbbbaaccccaadddeeedddaacccaabbfbb.bbbbbbbbbbaa###################################################..#########################################f####################.###############################################################..###############################################################.##############################################################."};
