/* XPM */
static char *dummy[]={
"32 32 3 1",
". c #000080",
"a c #c0c0c0",
"# c #ffffff",
"................................",
"................................",
"................................",
"................................",
"................................",
"................................",
"................................",
"................................",
"###...#####...########......####",
"##a...a###a...a#######a.....a###",
"##a...a###a...a#######a.....a###",
"..a...a...a...a.......a.....a...",
"..a...a...a...a.......a.....a...",
"..a...a...a...a.......a.....a...",
"..a...a...a...a.......a.....a...",
"..a...a...a...a.......a.....a...",
"..a...a...a...a.......a.....a...",
"..a...a...a...a.......a.....a...",
"..a###a...a###a.......a#####a...",
"..a###a...a###a.......a#####a...",
"..#####...#####.......#######...",
"................................",
"................................",
"................................",
"................................",
"................................",
"................................",
"................................",
"................................",
"................................",
"................................",
"................................"};
